<svg xmlns="http://www.w3.org/2000/svg" width="32" height="32"><path fill="#4d5ae5" d="M32 4.5c0-.2-.3-.3-.5-.3l-1.9-.3-.8-1.7c-.2-.4-.8-.4-1 0L27 3.9l-2 .3a.5.5 0 0 0-.2.9L26 6.4l-.3 2c0 .1 0 .3.2.4.2.2.4.2.6 0l1.7-.8 1.7.9a.5.5 0 0 0 .8-.6l-.3-1.9 1.3-1.3c.2-.2.2-.4.2-.6zM29.5 6c-.1 0-.2.2-.1.4l.1 1.1-1-.5a.5.5 0 0 0-.4 0l-1 .5.1-1-.1-.5-.8-.8 1.1-.2c.2 0 .3-.1.4-.3l.5-1 .5 1c0 .2.2.3.4.3l1.1.2-.8.8zM26.1 20.5h-1v1h1v-1zM26.1 22.7h-1v1h1v-1zM27.2 21.6h-1v1h1v-1zM25 21.6h-1v1h1v-1zM22.4 26.4h-1v1h1v-1zM22.4 28.5h-1v1h1v-1zM23.5 27.5h-1.1v1h1v-1zM21.3 27.5h-1v1h1v-1zM16 24.3h-1v1h1v-1zM16 26.4h-1v1h1v-1zM17 25.3h-1v1h1v-1zM15 25.3h-1.1v1h1v-1zM5.9 6.1H4.8v1h1v-1zM5.9 8.3H4.8v1h1v-1zM7 7.2H5.8v1h1v-1zM4.8 7.2h-1v1h1v-1z"/><path fill="#2e2f42" d="M24.7 14.2c-.3-.4-.7-.7-1.2-.7-.5-.1-1 0-1.3.3l-1.3 1-1.9 1.4-1.3-.6a7 7 0 0 0-2.9-13.2A7 7 0 0 0 9 13H6l-3.2 1.6-2 1a1.8 1.8 0 0 0 1 3.2c.3 0 .6 0 .8-.2L4 18l2.3-1.2h1.3l-5.4 5.4-1.3 1.3a1.7 1.7 0 0 0 0 2.4 1.7 1.7 0 0 0 2.3 0l1.3-1.3 1.8-1.3.9.9-1.8 1.7-1.3 1.4a1.7 1.7 0 0 0 0 2.3 1.7 1.7 0 0 0 2.3 0l3.5-3.4 1-1 5.2-5.7 3.5.5h.2l.1-.1 3.3-2.1 1.3-1.3c.7-.6.8-1.6.2-2.3zM2.1 17.8h-.5a.7.7 0 0 1-.2-1.2l1.3-.7.4 1.3-1 .6zm3.5-1.9-1.5.8-.5-1.2 2-1v1.4zm15.1-6.6c0 1-.2 1.8-.6 2.6l-4.2-2c0-.5-.3-1-.7-1.3l1.4-4.9c2.4.8 4.1 3 4.1 5.6zM9 9.3a5.9 5.9 0 0 1 6.7-5.8L14 8.3a1.9 1.9 0 1 0 0 3.7c.7 0 1.3-.4 1.6-1l3.9 1.8A5.9 5.9 0 0 1 8.9 9.3zm6 .8a.8.8 0 0 1-1.6 0 .8.8 0 0 1 1.6 0zm-12.4 15c-.3.3-.7.3-.9 0a.6.6 0 0 1 0-.8l1-1 .8.9-1 1zM5.7 29c-.3.2-.6.2-.9 0a.6.6 0 0 1 0-.9l1-1 .8 1-1 .9zm3.5-3.5-1.8 1.8-.9-.9 1.8-1.7.1-.2v-.5h-.1l-1.6-1.7h-.1l-.1-.1H6l-1.8 1.4-.9-1 2.4-2.3 4.4 4.3-1 1zm6.8-7a.6.6 0 0 0-.4 0v.1l-4.8 5.2-4.3-4.2 2.8-2.9a.5.5 0 0 0-.4-.9H6.7v-1.6H10a7 7 0 0 0 6.2 2l.1.1 2.5 1 .1.7.2 1-3-.5zm4 .2-.3-1.6 1.5-1 .9 1.2-2 1.4zm3.8-2.9-.9.8-.9-1.2.8-.6c.2-.2.4-.2.6-.2a.7.7 0 0 1 .4 1.2z"/><path fill="#2e2f42" d="m13.6 18.5-2.1-2a.5.5 0 0 0-.8 0l-2.1 2a.5.5 0 0 0 0 .8l2.1 2.1a.5.5 0 0 0 .8 0l2.1-2.1a.5.5 0 0 0 0-.8zm-2.5 1.8-1.4-1.4 1.4-1.4 1.4 1.4-1.4 1.4zM17.2 5l-.3 1.1s1.7.5 1.7 2.2h1.1c0-2-1.7-3-2.5-3.2zM19.7 9.3h-1v1h1v-1z"/></svg>